<svg xmlns="http://www.w3.org/2000/svg" version="1.1" xmlns:xlink="http://www.w3.org/1999/xlink" xmlns:svgjs="http://svgjs.dev/svgjs" width="1000" height="267" viewBox="0 0 1000 267"><g transform="matrix(1,0,0,1,-0.606034109579241,-0.45504226315662777)"><svg viewBox="0 0 396 106" data-background-color="#ffffff" preserveAspectRatio="xMidYMid meet" height="267" width="1000" xmlns="http://www.w3.org/2000/svg" xmlns:xlink="http://www.w3.org/1999/xlink"><g id="tight-bounds" transform="matrix(1,0,0,1,0.23998950739337488,0.18065348275132465)"><svg viewBox="0 0 395.52 105.63868826550771" height="105.63868826550771" width="395.52"><g><svg viewBox="0 0 395.52 105.63868826550771" height="105.63868826550771" width="395.52"><g><svg viewBox="0 0 395.52 105.63868826550771" height="105.63868826550771" width="395.52"><g id="textblocktransform"><svg viewBox="0 0 395.52 105.63868826550771" height="105.63868826550771" width="395.52" id="textblock"><g><svg viewBox="0 0 395.52 105.63868826550771" height="105.63868826550771" width="395.52"><g transform="matrix(1,0,0,1,0,0)"><svg width="395.52" viewBox="1.75 -33.20000076293945 126.53999328613281 33.79999923706055" height="105.63868826550771" data-palette-color="#202046"><path d="M13.8 0.6L13.8 0.6Q10.6 0.6 7.43-0.58 4.25-1.75 1.75-4.1L1.75-4.1 5.95-9.15Q7.7-7.65 9.83-6.7 11.95-5.75 14-5.75L14-5.75Q16.3-5.75 17.43-6.6 18.55-7.45 18.55-8.9L18.55-8.9Q18.55-9.65 18.23-10.2 17.9-10.75 17.28-11.18 16.65-11.6 15.78-11.98 14.9-12.35 13.85-12.8L13.85-12.8 9.6-14.6Q8.35-15.1 7.18-15.9 6-16.7 5.08-17.78 4.15-18.85 3.6-20.28 3.05-21.7 3.05-23.5L3.05-23.5Q3.05-25.5 3.9-27.28 4.75-29.05 6.3-30.38 7.85-31.7 9.98-32.45 12.1-33.2 14.65-33.2L14.65-33.2Q17.5-33.2 20.28-32.1 23.05-31 25.15-28.9L25.15-28.9 21.4-24.25Q19.8-25.5 18.2-26.18 16.6-26.85 14.65-26.85L14.65-26.85Q12.75-26.85 11.63-26.08 10.5-25.3 10.5-23.9L10.5-23.9Q10.5-23.15 10.88-22.63 11.25-22.1 11.93-21.68 12.6-21.25 13.5-20.88 14.4-20.5 15.45-20.05L15.45-20.05 19.65-18.35Q22.65-17.15 24.38-15.05 26.1-12.95 26.1-9.5L26.1-9.5Q26.1-7.45 25.28-5.63 24.45-3.8 22.88-2.43 21.3-1.05 19-0.23 16.7 0.6 13.8 0.6ZM39 0L31.65 0 31.65-32.6 39-32.6 39 0ZM68.25 0L44.64 0 44.64-4.45 59.05-26.4 45.99-26.4 45.99-32.6 68.09-32.6 68.09-28.15 53.7-6.2 68.25-6.2 68.25 0ZM81.39-16.5L81.39-16.5 80.59-13.5 87.54-13.5 86.79-16.5Q86.09-18.95 85.44-21.7 84.79-24.45 84.14-27L84.14-27 83.94-27Q83.34-24.4 82.72-21.68 82.09-18.95 81.39-16.5ZM77.09 0L69.59 0 79.79-32.6 88.64-32.6 98.84 0 91.04 0 89.04-7.75 79.09-7.75 77.09 0ZM109.74 0L102.39 0 102.39-32.6 114.14-32.6Q116.74-32.6 119.02-32.1 121.29-31.6 122.99-30.43 124.69-29.25 125.69-27.3 126.69-25.35 126.69-22.45L126.69-22.45Q126.69-18.85 125.12-16.53 123.54-14.2 120.89-13.05L120.89-13.05 128.29 0 120.04 0 113.79-11.75 109.74-11.75 109.74 0ZM109.74-26.75L109.74-17.6 113.54-17.6Q116.44-17.6 117.97-18.82 119.49-20.05 119.49-22.45L119.49-22.45Q119.49-24.85 117.97-25.8 116.44-26.75 113.54-26.75L113.54-26.75 109.74-26.75Z" opacity="1" transform="matrix(1,0,0,1,0,0)" fill="#202046" class="undefined-text-0" data-fill-palette-color="primary" id="text-0"></path></svg></g></svg></g></svg></g></svg></g><g></g></svg></g><defs></defs></svg><rect width="395.52" height="105.63868826550771" fill="none" stroke="none" visibility="hidden"></rect></g></svg></g></svg>